<svg width="273" height="263" viewBox="0 0 273 263" fill="none" xmlns="http://www.w3.org/2000/svg">
<g clip-path="url(#clip0)">
<path d="M193.074 72.6159C193.074 74.1149 193.008 75.6013 192.877 77.0751C192.143 85.5755 189.248 93.8962 184.344 101.599C184.306 101.664 184.261 101.725 184.223 101.786C183.995 102.144 183.761 102.501 183.52 102.853C182.061 105.032 180.444 107.149 178.673 109.197C170.588 118.595 159.505 126.372 146.405 131.84C133.304 137.308 118.59 140.299 103.561 140.547L104.467 179.191L116.283 174.577L118.392 177.551L104.556 182.955L106.248 254.725L106.266 255.684L97.1309 256.252L97.1498 256.229L100.026 140.552C87.9296 140.423 75.9881 138.514 64.8949 134.934C53.8017 131.354 43.7778 126.175 35.4053 119.699C34.829 119.257 34.2585 118.801 33.7011 118.35C33.6758 118.331 33.6569 118.312 33.6377 118.298C26.6619 112.656 21.0202 106.181 16.9504 99.1457C17.0392 99.2209 17.1342 99.2914 17.223 99.3666C8.02513 83.4139 7.4013 65.4562 15.4793 49.1734C23.5573 32.8905 39.7255 19.5155 60.6707 11.7891C60.9874 11.6716 61.3107 11.5588 61.6275 11.4414C82.3461 4.03964 106.058 2.68152 128.063 7.63621C150.068 12.5909 168.76 23.4967 180.435 38.192C180.992 38.8875 181.531 39.597 182.05 40.3112C189.302 50.2284 193.092 61.3341 193.074 72.6159V72.6159Z" fill="url(#paint0_linear)"/>
<path d="M125.621 256.41C140.69 256.41 152.905 247.35 152.905 236.174C152.905 224.997 140.69 215.937 125.621 215.937C110.552 215.937 98.336 224.997 98.336 236.174C98.336 247.35 110.552 256.41 125.621 256.41Z" fill="#2F2E41"/>
<path d="M157.869 250.084H133.425V256.232H157.869V250.084Z" fill="#2F2E41"/>
<path d="M158.041 256.232C159.472 256.232 160.632 253.938 160.632 251.109C160.632 248.279 159.472 245.986 158.041 245.986C156.611 245.986 155.451 248.279 155.451 251.109C155.451 253.938 156.611 256.232 158.041 256.232Z" fill="#2F2E41"/>
<path d="M152.167 249.614H127.723V255.762H152.167V249.614Z" fill="#2F2E41"/>
<path d="M152.34 255.762C153.77 255.762 154.93 253.469 154.93 250.639C154.93 247.81 153.77 245.516 152.34 245.516C150.909 245.516 149.749 247.81 149.749 250.639C149.749 253.469 150.909 255.762 152.34 255.762Z" fill="#2F2E41"/>
<path d="M99.1536 217.354C96.9505 210.036 103.993 202.642 114.883 200.838C125.774 199.035 136.388 203.505 138.591 210.823C140.795 218.141 133.577 220.84 122.687 222.643C111.796 224.447 101.357 224.672 99.1536 217.354Z" fill="#6C63FF"/>
<path d="M136.107 235.021C134.68 235.043 133.28 234.731 132.105 234.131C130.93 233.53 130.038 232.671 129.557 231.674C129.53 231.616 129.52 231.554 129.525 231.492C129.531 231.431 129.553 231.371 129.59 231.315C129.627 231.26 129.678 231.211 129.741 231.17C129.804 231.13 129.877 231.099 129.956 231.079C130.035 231.06 130.118 231.052 130.201 231.056C130.284 231.06 130.365 231.076 130.439 231.104C130.514 231.131 130.58 231.169 130.635 231.216C130.69 231.263 130.731 231.317 130.758 231.375C131.717 233.493 135.002 234.601 138.078 233.844C139.606 233.475 140.875 232.673 141.609 231.613C141.923 231.156 142.113 230.658 142.166 230.147C142.218 229.635 142.134 229.121 141.916 228.635C141.89 228.576 141.879 228.514 141.885 228.453C141.89 228.391 141.912 228.331 141.949 228.276C141.986 228.221 142.038 228.171 142.101 228.131C142.163 228.09 142.236 228.059 142.315 228.04C142.394 228.02 142.477 228.012 142.56 228.016C142.643 228.021 142.724 228.037 142.799 228.064C142.873 228.092 142.94 228.13 142.994 228.176C143.049 228.223 143.091 228.277 143.117 228.335C143.388 228.939 143.495 229.577 143.43 230.212C143.366 230.847 143.132 231.466 142.742 232.033C141.857 233.316 140.324 234.287 138.477 234.736C137.713 234.924 136.913 235.021 136.107 235.021V235.021Z" fill="white"/>
<path d="M148.261 237.772C148.994 238.834 149.127 240.068 148.632 241.203C148.138 242.338 147.055 243.281 145.623 243.824C144.191 244.368 142.527 244.467 140.997 244.1C139.466 243.733 138.195 242.93 137.463 241.868L137.457 241.86C135.935 239.647 138.038 238.274 141.022 237.145C144.005 236.016 146.739 235.559 148.261 237.772Z" fill="white"/>
<path d="M245.643 256.593H4.26537C4.09735 256.593 3.9362 256.543 3.81738 256.455C3.69857 256.367 3.63184 256.247 3.63184 256.123C3.63184 255.998 3.69857 255.879 3.81738 255.791C3.9362 255.702 4.09735 255.653 4.26537 255.653H245.643C245.811 255.653 245.972 255.702 246.091 255.791C246.21 255.879 246.276 255.998 246.276 256.123C246.276 256.247 246.21 256.367 246.091 256.455C245.972 256.543 245.811 256.593 245.643 256.593Z" fill="#3F3D56"/>
<path d="M119.517 262.964C122.058 262.478 122.425 257.217 120.338 251.213C118.25 245.209 114.498 240.736 111.956 241.222C109.415 241.708 109.048 246.969 111.135 252.973C113.223 258.977 116.975 263.45 119.517 262.964Z" fill="#2F2E41"/>
<path d="M165.332 212.05H154.951C154.852 212.05 154.755 212.027 154.674 211.986C154.592 211.944 154.529 211.886 154.494 211.817C154.458 211.749 154.451 211.674 154.474 211.603C154.497 211.531 154.549 211.467 154.622 211.417L164.062 205.076H155.34C155.21 205.076 155.086 205.038 154.994 204.97C154.902 204.902 154.85 204.81 154.85 204.713C154.85 204.617 154.902 204.525 154.994 204.457C155.086 204.388 155.21 204.35 155.34 204.35H165.332C165.43 204.35 165.527 204.372 165.609 204.414C165.69 204.455 165.753 204.514 165.788 204.583C165.824 204.651 165.831 204.726 165.808 204.797C165.785 204.869 165.734 204.933 165.66 204.982L156.22 211.323H165.332C165.461 211.323 165.586 211.362 165.678 211.43C165.77 211.498 165.821 211.59 165.821 211.687C165.821 211.783 165.77 211.875 165.678 211.943C165.586 212.011 165.461 212.05 165.332 212.05V212.05Z" fill="#FF6584"/>
<path d="M178.55 200.793H168.169C168.07 200.793 167.973 200.771 167.892 200.73C167.81 200.688 167.748 200.629 167.712 200.561C167.676 200.493 167.67 200.418 167.692 200.346C167.715 200.275 167.767 200.21 167.84 200.161L177.28 193.82H168.558C168.428 193.82 168.304 193.782 168.212 193.714C168.12 193.646 168.068 193.553 168.068 193.457C168.068 193.361 168.12 193.269 168.212 193.2C168.304 193.132 168.428 193.094 168.558 193.094H178.55C178.649 193.094 178.745 193.116 178.827 193.158C178.908 193.199 178.971 193.258 179.007 193.327C179.042 193.395 179.049 193.47 179.026 193.541C179.003 193.613 178.952 193.677 178.878 193.726L169.439 200.067H178.55C178.679 200.067 178.804 200.106 178.896 200.174C178.988 200.242 179.039 200.334 179.039 200.43C179.039 200.527 178.988 200.619 178.896 200.687C178.804 200.755 178.679 200.793 178.55 200.793V200.793Z" fill="#2F2E41"/>
<path d="M172.675 188.448H162.294C162.195 188.448 162.099 188.426 162.017 188.384C161.936 188.343 161.873 188.284 161.837 188.216C161.802 188.147 161.795 188.072 161.818 188.001C161.841 187.93 161.892 187.865 161.965 187.816L171.405 181.475H162.683C162.554 181.475 162.429 181.437 162.337 181.369C162.245 181.3 162.194 181.208 162.194 181.112C162.194 181.015 162.245 180.923 162.337 180.855C162.429 180.787 162.554 180.749 162.683 180.749H172.675C172.774 180.749 172.87 180.771 172.952 180.812C173.034 180.854 173.096 180.913 173.132 180.981C173.167 181.05 173.174 181.124 173.151 181.196C173.128 181.267 173.077 181.332 173.004 181.381L163.564 187.722H172.675C172.805 187.722 172.929 187.76 173.021 187.828C173.113 187.896 173.165 187.989 173.165 188.085C173.165 188.181 173.113 188.274 173.021 188.342C172.929 188.41 172.805 188.448 172.675 188.448V188.448Z" fill="#FF6584"/>
<path d="M244.621 83.347L252.727 78.5384C246.43 78.0231 243.842 80.5703 242.783 82.5865C237.864 81.0713 232.508 83.057 232.508 83.057L248.727 87.424C247.908 85.8031 246.484 84.3888 244.621 83.347Z" fill="#3F3D56"/>
<path d="M12.1127 4.87592L20.2187 0.0673567C13.9215 -0.44793 11.3341 2.09928 10.2752 4.11543C5.35557 2.60029 -3.05176e-05 4.58596 -3.05176e-05 4.58596L16.2186 8.95296C15.4004 7.33208 13.9761 5.91779 12.1127 4.87592V4.87592Z" fill="#3F3D56"/>
<path d="M264.894 21.3219L273 16.5134C266.703 15.9981 264.115 18.5453 263.056 20.5614C258.137 19.0463 252.781 21.032 252.781 21.032L269 25.399C268.182 23.7781 266.757 22.3638 264.894 21.3219Z" fill="#3F3D56"/>
</g>
<defs>
<linearGradient id="paint0_linear" x1="101.458" y1="4.70317" x2="101.458" y2="256.252" gradientUnits="userSpaceOnUse">
<stop stop-color="#1DA0CA"/>
<stop offset="1" stop-color="#36CA1D" stop-opacity="0"/>
</linearGradient>
<clipPath id="clip0">
<rect width="273" height="263" fill="white"/>
</clipPath>
</defs>
</svg>
